#!OML:ASF F:\VICON\USERDATA\INSTALL\rory3\rory3.ASF
:FULLY-SPECIFIED
:DEGREES
249
root 0.085883 17.6452 3.16712 -3.17305 -2.08395 1.0451
lowerback 5.35421 -0.503713 -2.30517
upperback -1.0397 -0.727874 2.58782
thorax -4.01994 -0.276053 4.04526
lowerneck -19.0573 -3.83279 -9.10305
upperneck 23.3189 -4.13065 5.75008
head 11.0149 -1.99464 2.99019
rclavicle -1.00386e-014 -3.26007e-014
rhumerus -39.3695 -9.92046 -74.1077
rradius 34.7697
rwrist 2.92403
rhand -12.8815 13.9354
rfingers 7.12502
rthumb 13.2074 -15.6262
lclavicle -1.00386e-014 -3.26007e-014
lhumerus -40.3802 6.43566 82.7175
lradius 41.716
lwrist -0.568097
lhand -19.9685 25.4503
lfingers 7.12502
lthumb 6.37027 55.3346
rfemur -6.03524 6.26633 22.7838
rtibia 25.9126
rfoot -10.8679 -4.79644
rtoes 4.29074
lfemur -5.85085 -3.50031 -22.8452
ltibia 23.9915
lfoot -11.09 2.92987
ltoes 0.157839
250
root 0.0860523 17.6473 3.18884 -3.17572 -2.05079 1.04522
lowerback 5.3501 -0.543362 -2.31924
upperback -0.96082 -0.778729 2.68496
thorax -3.92991 -0.302824 4.15786
lowerneck -19.3199 -3.83581 -9.12846
upperneck 23.4219 -4.08846 5.69031
head 11.0998 -1.98208 2.97896
rclavicle -2.4202e-014 2.62396e-014
rhumerus -39.2306 -10.152 -73.8385
rradius 35.3516
rwrist 2.36384
rhand -12.871 13.2824
rfingers 7.12502
rthumb 13.2175 -16.2786
lclavicle -2.4202e-014 2.62396e-014
lhumerus -40.1993 7.00136 82.426
lradius 41.4487
lwrist -0.697313
lhand -20.2286 25.5241
lfingers 7.12502
lthumb 6.11915 55.4157
rfemur -5.80413 6.38275 22.8106
rtibia 25.6659
rfoot -10.7789 -4.93693
rtoes 4.29819
lfemur -5.73319 -3.65235 -22.8783
ltibia 23.9742
lfoot -11.1132 3.04228
ltoes 0.23467
251
root 0.0886786 17.6485 3.20888 -3.11109 -1.97263 1.02081
lowerback 5.22416 -0.608352 -2.27745
upperback -0.869228 -0.859211 2.76645
thorax -3.75592 -0.347752 4.22198
lowerneck -19.4375 -3.79229 -9.11633
upperneck 23.4523 -4.01539 5.67383
head 11.1268 -1.94829 2.98214
rclavicle 4.17448e-015 -3.10104e-014
rhumerus -38.9476 -10.6114 -73.5899
rradius 35.7871
rwrist 2.06056
rhand -12.9969 13.2193
rfingers 7.12502
rthumb 13.0961 -16.3495
lclavicle 4.17448e-015 -3.10104e-014
lhumerus -40.0994 7.53451 82.1123
lradius 41.2904
lwrist -0.620646
lhand -20.2852 25.3173
lfingers 7.12502
lthumb 6.06452 55.2105
rfemur -5.63696 6.30775 22.8145
rtibia 25.4028
rfoot -10.8052 -4.93447
rtoes 4.30444
lfemur -5.70952 -3.73494 -22.8798
ltibia 23.9528
lfoot -11.0732 3.05274
ltoes 0.523972
252
root 0.0901433 17.6529 3.22837 -3.07913 -2.04375 0.911284
lowerback 5.16818 -0.623899 -2.13451
upperback -0.822967 -0.867402 2.85503
thorax -3.67626 -0.356212 4.2322
lowerneck -19.1664 -3.7139 -9.16787
upperneck 23.2524 -3.91732 5.71228
head 10.9934 -1.90552 3.01851
rclavicle -2.63887e-014 1.90833e-014
rhumerus -38.7212 -10.9896 -73.3852
rradius 35.9481
rwrist 1.58428
rhand -13.1428 14.5409
rfingers 7.12502
rthumb 12.9556 -15.0369
lclavicle -2.63887e-014 1.90833e-014
lhumerus -40.1505 7.77266 81.8965
lradius 41.2594
lwrist -0.0741336
lhand -20.3496 24.8182
lfingers 7.12502
lthumb 6.0023 54.7132
rfemur -5.48922 6.34845 22.9299
rtibia 25.1966
rfoot -10.8276 -4.87783
rtoes 4.4707
lfemur -5.64368 -3.74435 -22.7709
ltibia 23.892
lfoot -11.011 3.13167
ltoes 0.538434
253
root 0.0923138 17.6593 3.24993 -3.08321 -2.12321 0.765048
lowerback 5.1041 -0.635733 -1.96054
upperback -0.782675 -0.868125 2.9662
thorax -3.59906 -0.361124 4.24773
lowerneck -18.7905 -3.67431 -9.1954
upperneck 22.9563 -3.85503 5.62461
head 10.8052 -1.89267 2.9975
rclavicle -1.31695e-014 -3.4191e-014
rhumerus -38.7499 -11.0455 -73.2387
rradius 36.2383
rwrist 0.676458
rhand -13.3558 15.0104
rfingers 7.12502
rthumb 12.7502 -14.5803
lclavicle -1.31695e-014 -3.4191e-014
lhumerus -40.1797 7.93043 81.7507
lradius 41.1575
lwrist 0.286069
lhand -20.5907 24.9547
lfingers 7.12502
lthumb 5.7695 54.8562
rfemur -5.31729 6.36741 23.0873
rtibia 25.007
rfoot -10.8046 -4.78619
rtoes 4.34811
lfemur -5.50238 -3.72276 -22.626
ltibia 23.7915
lfoot -11.0036 3.21651
ltoes 0.46604
254
root 0.0925016 17.6651 3.2771 -3.06119 -2.01572 0.760948
lowerback 5.0238 -0.699108 -1.94135
upperback -0.768529 -0.949786 3.01067
thorax -3.53154 -0.403253 4.28773
lowerneck -18.6603 -3.6657 -9.05196
upperneck 22.834 -3.83315 5.39095
head 10.7257 -1.89896 2.88998
rclavicle -3.77691e-015 1.59028e-015
rhumerus -38.9418 -11.0164 -73.1797
rradius 36.7985
rwrist -0.0772799
rhand -13.6756 15.1194
rfingers 7.12502
rthumb 12.4419 -14.4903
lclavicle -3.77691e-015 1.59028e-015
lhumerus -40.2339 8.10213 81.5646
lradius 41.1012
lwrist 0.360219
lhand -20.6535 25.5821
lfingers 7.12502
lthumb 5.7089 55.4852
rfemur -5.09088 6.30559 23.0802
rtibia 24.7819
rfoot -10.7996 -4.7713
rtoes 4.30689
lfemur -5.34395 -3.7841 -22.6413
ltibia 23.6338
lfoot -11.043 3.23559
ltoes 0.637565
